<?xml version="1.0" encoding="UTF-8"?>
<svg width="48px" height="48px" viewBox="0 0 48 48" version="1.1" xmlns="http://www.w3.org/2000/svg" xmlns:xlink="http://www.w3.org/1999/xlink">
    <title>headlights</title>
    <g id="GUI-Elements" stroke="none" stroke-width="1" fill="none" fill-rule="evenodd">
        <g id="Driving---Navigation" transform="translate(-510.000000, -10.000000)">
            <g id="headlights" transform="translate(90.000000, 10.000000)">
                <g transform="translate(420.000000, 0.000000)">
                    <polygon id="Background" points="0 0 48 0 48 48 0 48"></polygon>
                    <g id="Vector-16" transform="translate(6.000000, 9.000000)" fill="#25CB55">
                        <path d="M12.1641,21.8906 C12.7768,22.8097 12.5285,24.0514 11.6094,24.6641 L1.1094,31.6641 C0.19034,32.2768 -1.0514,32.0285 -1.6641,31.1094 C-2.2461745,30.236255 -2.05114235,29.0719635 -1.24220488,28.4324036 L-1.1094,28.3359 L9.3906,21.3359 L9.53076555,21.2504287 C10.4322975,20.749707 11.582035,21.017455 12.1641,21.8906 Z M12.1641,15.8906 C12.7768,16.8097 12.5285,18.0514 11.6094,18.6641 L1.1094,25.6641 C0.19034,26.2768 -1.0514,26.0285 -1.6641,25.1094 C-2.2461745,24.236255 -2.05114235,23.0719635 -1.24220488,22.4324036 L-1.1094,22.3359 L9.3906,15.3359 C10.3097,14.7232 11.5514,14.9715 12.1641,15.8906 Z M12.1641,9.8906 C12.7768,10.8097 12.5285,12.0514 11.6094,12.6641 L1.1094,19.6641 C0.19034,20.2768 -1.0514,20.0285 -1.6641,19.1094 C-2.2461745,18.236255 -2.05114235,17.0719635 -1.24220488,16.4324035 L-1.1094,16.3359 L9.3906,9.3359 L9.53076555,9.25042766 C10.4322975,8.74970177 11.582035,9.017493 12.1641,9.8906 Z M11.1404569,5.96068528 L11.6094,6.6641 L1.1094,13.6641 C0.19034,14.2768 -1.0514,14.0285 -1.6641,13.1094 C-2.2461745,12.236255 -2.05114235,11.0719635 -1.24220488,10.4324035 L-1.1094,10.3359 L9.3906,3.3359 L9.53076555,3.25042766 C10.4322975,2.74970178 11.582035,3.017493 12.1641,3.8906 C12.7768,4.80966 12.5285,6.0514 11.6094,6.6641 C11.6094,6.6641 11.4146082,6.37191235 11.1404569,5.96068528 Z M22.0713,-2 L22.1425,-1.99492 L22.1425,-1.99492 C24.8685,-1.8002 28.7471,-0.53157 31.9787,1.9844 C35.1865475,4.48196 37.8630907,8.30563237 37.9949129,13.590581 L38,14 L37.9949129,14.4094183 C37.8630907,19.6943581 35.1865475,23.51804 31.9787,26.0156 C28.7471,28.5316 24.8685,29.8002 22.1425,29.9949 L22.0713,30 L22,30 C19.9134,30 17.8346,29.4677 16.5009,27.3748 C15.4004217,25.648087 15.031982,23.1459675 15.0020241,19.9413419 L15,19.5 L15,8.5 L15.0020241,8.05866068 C15.031982,4.8540541 15.4004217,2.35195043 16.5009,0.62518 C17.7852037,-1.39021481 19.7604369,-1.9584318 21.7682251,-1.99775734 L22,-2 L22.0713,-2 Z M21.9314435,2.00056367 L22,2 C20.5866,2 20.1654,2.31773 19.8741,2.77482 C19.4159621,3.49387931 19.0276477,5.00773377 19.0014121,8.15635408 L19,8.5 L19,19.5 L19.0014121,19.8436439 C19.0276477,22.9922449 19.4159621,24.5060828 19.8741,25.2252 C20.1492167,25.6569056 20.5402009,25.9642698 21.7734725,25.9970889 L21.925,25.999 L22.095931,25.9844097 C24.0469806,25.7863171 27.023572,24.804072 29.5213,22.8594 C31.985025,20.9411781 33.8784378,18.1815182 33.9943701,14.3719522 L34,14 L33.9943701,13.6280486 C33.8784378,9.8184894 31.985025,7.05879281 29.5213,5.1406 C26.9522958,3.14043403 23.8767082,2.15843635 21.9314435,2.00056367 Z" id="Vector-16-border"></path>
                    </g>
                </g>
            </g>
        </g>
    </g>
</svg>