<?xml version="1.0" encoding="UTF-8"?>
<svg width="48px" height="48px" viewBox="0 0 48 48" version="1.1" xmlns="http://www.w3.org/2000/svg" xmlns:xlink="http://www.w3.org/1999/xlink">
    <title>microphone</title>
    <g id="GUI-Elements" stroke="none" stroke-width="1" fill="none" fill-rule="evenodd">
        <g id="Driving---Navigation" transform="translate(-415.000000, -880.000000)">
            <g id="action-icons" transform="translate(0.000000, 880.000000)">
                <g id="microphone" transform="translate(415.000000, 0.000000)">
                    <polygon id="Background" points="0 0 48 0 48 48 0 48"></polygon>
                    <path d="M16,23 C16,21.8954 15.10449,21 14,21 C12.89551,21 12,21.8954 12,23 C12,23 12,25 12,25 C12,30.946 16.32471,35.882 22,36.8341 C22,36.8341 22,37.5560667 22,39 C18,39 16,39 16,39 C14.89551,39 14,39.8954 14,41 C14,42.1046 14.89551,43 16,43 C16,43 18.6666667,43 24,43 C29.3333333,43 32,43 32,43 C33.1045,43 34,42.1046 34,41 C34,39.8954 33.1045,39 32,39 C32,39 30,39 26,39 C26,37.5560667 26,36.8341 26,36.8341 C31.6753,35.882 36,30.946 36,25 C36,25 36,23 36,23 C36,21.8954 35.1045,21 34,21 C32.8955,21 32,21.8954 32,23 C32,23 32,25 32,25 C32,29.4183 28.4185,33 24,33 C19.58154,33 16,29.4183 16,25 C16,25 16,23 16,23 Z M24,5 C20.68652,5 18,7.68628 18,11 C18,11 18,25 18,25 C18,28.3137 20.68652,31 24,31 C27.3135,31 30,28.3137 30,25 C30,25 30,11 30,11 C30,7.68628 27.3135,5 24,5 Z" id="Union" fill-opacity="0.4" fill="#000000"></path>
                </g>
            </g>
        </g>
    </g>
</svg>