<?xml version="1.0" encoding="UTF-8"?>
<svg width="48px" height="48px" viewBox="0 0 48 48" version="1.1" xmlns="http://www.w3.org/2000/svg" xmlns:xlink="http://www.w3.org/1999/xlink">
    <title>steering wheel</title>
    <g id="GUI-Elements" stroke="none" stroke-width="1" fill="none" fill-rule="evenodd">
        <g id="Driving---Navigation" transform="translate(-20.000000, -227.000000)">
            <g id="driving" transform="translate(0.000000, 207.000000)">
                <g id="steering-wheel" transform="translate(20.000000, 20.000000)">
                    <polygon id="Background" points="0 0 48 0 48 48 0 48"></polygon>
                    <path d="M41.8901,22 C40.895,13.0001 33.2651,6 24,6 C14.7349,6 7.10498,13.0001 6.10986,22 C6.10986,22 10.5,22 10.5,22 C12.2222,22 13.666,21.444 15.3105,20.8107 C17.4863,19.973 20.0137,19 24,19 C27.9863,19 30.5137,19.973 32.6895,20.8107 C34.334,21.444 35.7778,22 37.5,22 C37.5,22 41.8901,22 41.8901,22 Z M27.0474,41.7431 C34.562,40.4617 40.4883,34.5226 41.751,27.0017 C32.0425,27.1345 27.5474,35.0271 27.0474,41.7431 Z M6.24902,27.0017 C15.9575,27.1345 20.4526,35.0271 20.9526,41.7431 C13.438,40.4617 7.51172,34.5226 6.24902,27.0017 Z M46,24 C46,36.1503 36.1504,46 24,46 C11.84961,46 2,36.1503 2,24 C2,11.84973 11.84961,2 24,2 C36.1504,2 46,11.84973 46,24 Z" id="Union" fill="#007BE4"></path>
                </g>
            </g>
        </g>
    </g>
</svg>